<?xml version="1.0" standalone="no"?><!-- Generator: Gravit.io --><svg xmlns="http://www.w3.org/2000/svg" xmlns:xlink="http://www.w3.org/1999/xlink" style="isolation:isolate" viewBox="577.601 2132.367 702.399 267.633" width="702.399" height="267.633"><g id="Gelombang 3"><g opacity="0.2"><linearGradient id="_lgradient_18" x1="104.09495171608607%" y1="-114.87326073732945%" x2="37.424237833794436%" y2="112.49195772565119%"><stop offset="0%" stop-opacity="1" style="stop-color:rgb(255,255,255)"/><stop offset="100%" stop-opacity="1" style="stop-color:rgb(23,23,29)"/></linearGradient><path d=" M 856.421 2400 C 884.376 2380.774 917.038 2366.577 955.896 2359.777 C 1112.752 2332.328 1185.66 2339.347 1280 2276.435 L 1280 2154.742 C 1256.967 2158.166 1233.583 2157.362 1209.853 2152.393 C 1027.501 2114.204 943.249 2131.937 846.875 2194.482 C 775.449 2240.836 706.82 2325.042 669.403 2400 L 856.421 2400 Z " fill="url(#_lgradient_18)"/></g><g opacity="0.2"><linearGradient id="_lgradient_19" x1="104.09495171608607%" y1="-114.87326073732945%" x2="37.424237833794436%" y2="112.49195772565119%"><stop offset="0%" stop-opacity="1" style="stop-color:rgb(255,255,255)"/><stop offset="100%" stop-opacity="1" style="stop-color:rgb(23,23,29)"/></linearGradient><path d=" M 1234.629 2400 C 1250.324 2391.754 1265.49 2383.822 1280 2376.038 L 1280 2272.339 C 1232.396 2288.676 1184.56 2286.324 1136.495 2265.302 C 951.134 2184.234 862.958 2186.085 759.068 2235.156 C 690.866 2267.369 622.801 2333.044 577.601 2400 L 1234.629 2400 Z " fill="url(#_lgradient_19)"/></g></g></svg>