<?xml version="1.0" standalone="no"?><!-- Generator: Gravit.io --><svg xmlns="http://www.w3.org/2000/svg" xmlns:xlink="http://www.w3.org/1999/xlink" style="isolation:isolate" viewBox="0 246 1281 417.763" width="1288" height="417.763"><g id="Gelombang 1"><g opacity="0.2"><linearGradient id="_lgradient_14" x1="104.09495171608607%" y1="-114.87326073732945%" x2="37.424237833794436%" y2="112.49195772565119%"><stop offset="0%" stop-opacity="1" style="stop-color:rgb(255,255,255)"/><stop offset="100%" stop-opacity="1" style="stop-color:rgb(23,23,29)"/></linearGradient><path d=" M 0 599.446 Q 100.956 598.577 172 558 C 281.196 495.633 413.884 395.976 564 463 C 714.116 530.024 769.504 577.493 890.5 575 C 1011.496 572.507 1105.86 574.298 1175 538 C 1199.42 525.18 1237.032 506.274 1281 488.439 L 1281 428.27 C 1102.692 515.834 972.533 517.397 890.5 433 C 760.645 299.403 680.873 267.011 566 265 C 451.127 262.989 301.954 320.965 241 382 C 186.563 436.51 81.216 544.87 0 564.866 L 0 599.446 Z " fill="url(#_lgradient_14)"/></g><g opacity="0.2"><linearGradient id="_lgradient_15" x1="104.09495171608607%" y1="-114.87326073732945%" x2="37.424237833794436%" y2="112.49195772565119%"><stop offset="0%" stop-opacity="1" style="stop-color:rgb(255,255,255)"/><stop offset="100%" stop-opacity="1" style="stop-color:rgb(23,23,29)"/></linearGradient><path d=" M 0 549.416 Q 18.198 543.568 35.225 535.258 C 152.978 477.786 299.701 380.468 438.309 477.319 C 576.917 574.171 624.596 636.085 744.925 649.087 C 865.255 662.09 958.532 676.532 1032.603 643.816 C 1082.603 621.731 1183.759 580.379 1281 570.927 L 1281 484.992 L 1186.471 517.756 Q 874.939 656.449 766.558 485.616 C 658.177 314.782 584.03 267.028 470.456 249.643 C 356.882 232.257 200.166 279.43 130.441 341.698 C 98.229 370.464 50.319 414.03 0 451.099 L 0 549.416 Z " fill="url(#_lgradient_15)"/></g></g></svg>
