<?xml version="1.0" standalone="no"?><!-- Generator: Gravit.io --><svg xmlns="http://www.w3.org/2000/svg" xmlns:xlink="http://www.w3.org/1999/xlink" style="isolation:isolate" viewBox="0 2831.172 755.384 368.828" width="755.384" height="368.828"><g id="Gelombang 4"><g opacity="0.2"><linearGradient id="_lgradient_0" x1="104.09495171608607%" y1="-114.87326073732945%" x2="37.424237833794436%" y2="112.49195772565119%"><stop offset="0%" stop-opacity="1" style="stop-color:rgb(255,255,255)"/><stop offset="100%" stop-opacity="1" style="stop-color:rgb(23,23,29)"/></linearGradient><path d=" M 650.268 3200 C 649.752 3196.478 649.257 3193.128 648.779 3189.909 C 636.088 3104.588 550.663 2969.25 457.128 2902.535 C 363.592 2835.82 280.2 2814.406 96.347 2844.553 C 63.217 2849.985 31.1 2847.466 0 2836.955 L 0 2949.572 C 3.861 2952.513 7.853 2955.588 11.879 2958.698 C 107.657 3032.676 180.418 3027.466 340.956 3062.885 C 426.738 3081.811 480.211 3136.032 519.118 3200 L 650.268 3200 Z " fill="url(#_lgradient_0)"/></g><g opacity="0.2"><linearGradient id="_lgradient_1" x1="104.09495171608607%" y1="-114.87326073732945%" x2="37.424237833794436%" y2="112.49195772565119%"><stop offset="0%" stop-opacity="1" style="stop-color:rgb(255,255,255)"/><stop offset="100%" stop-opacity="1" style="stop-color:rgb(23,23,29)"/></linearGradient><path d=" M 755.384 3200 C 726.516 3110.742 636.359 2996.209 543.065 2947.024 C 441.428 2893.44 353.419 2887.721 164.679 2960.574 C 108.396 2982.299 53.502 2979.37 0 2951.734 L 0 3055.088 L 0 3055.088 C 26.158 3070.936 54.619 3087.17 84.828 3104.847 C 189.288 3165.972 264.443 3144.564 433.473 3149.162 C 490.05 3150.7 534.418 3170.266 570.662 3200 L 755.384 3200 Z " fill="url(#_lgradient_1)"/></g></g></svg>