<?xml version="1.0" standalone="no"?><!-- Generator: Gravit.io --><svg xmlns="http://www.w3.org/2000/svg" xmlns:xlink="http://www.w3.org/1999/xlink" style="isolation:isolate" viewBox="0 1216.788 733.566 383.212" width="733.566" height="383.212"><g id="Gelombang 2"><g opacity="0.2"><linearGradient id="_lgradient_16" x1="104.09495171608607%" y1="-114.87326073732945%" x2="37.424237833794436%" y2="112.49195772565119%"><stop offset="0%" stop-opacity="1" style="stop-color:rgb(255,255,255)"/><stop offset="100%" stop-opacity="1" style="stop-color:rgb(23,23,29)"/></linearGradient><path d=" M 733.566 1600 Q 707.538 1576.85 690.417 1544.874 C 602.471 1380.629 534.736 1327.482 424.879 1293.848 C 315.021 1260.214 155.642 1274.773 80.211 1316.617 C 58.745 1328.525 30.802 1344.262 0 1360.074 L 0 1360.074 L 0 1457.876 C 115.922 1427.395 254.162 1387.552 368.316 1483.607 C 424.611 1530.977 463.751 1569.347 500.278 1600 L 733.566 1600 Z " fill="url(#_lgradient_16)"/></g><g opacity="0.2"><linearGradient id="_lgradient_17" x1="104.09495171608607%" y1="-114.87326073732945%" x2="37.424237833794436%" y2="112.49195772565119%"><stop offset="0%" stop-opacity="1" style="stop-color:rgb(255,255,255)"/><stop offset="100%" stop-opacity="1" style="stop-color:rgb(23,23,29)"/></linearGradient><path d=" M 572.203 1600 Q 562.869 1582.012 556.767 1561.243 C 499.739 1367.135 441.649 1300.772 337.283 1252.72 C 238.776 1207.366 87.455 1206.685 0 1240.911 L 0 1240.911 L 0 1379.73 C 88.859 1370.816 177.879 1381.689 243.555 1462.685 C 288.52 1518.139 319.624 1563.134 348.982 1600 L 572.203 1600 Z " fill="url(#_lgradient_17)"/></g></g></svg>