<?xml version="1.0" standalone="no"?><!-- Generator: Gravit.io --><svg xmlns="http://www.w3.org/2000/svg" xmlns:xlink="http://www.w3.org/1999/xlink" style="isolation:isolate" viewBox="579.278 2400 700.722 299.24" width="700.722" height="299.24"><g id="Gelombang 4"><g opacity="0.2"><linearGradient id="_lgradient_20" x1="104.09495171608607%" y1="-114.87326073732945%" x2="37.424237833794436%" y2="112.49195772565119%"><stop offset="0%" stop-opacity="1" style="stop-color:rgb(255,255,255)"/><stop offset="100%" stop-opacity="1" style="stop-color:rgb(23,23,29)"/></linearGradient><path d=" M 1280 2541.924 C 1195.319 2493.131 1122.058 2497.185 977.171 2471.831 C 919.239 2461.693 875.081 2435.115 839.699 2400 L 676.567 2400 C 708.421 2481.574 786.456 2584.108 868.15 2637.125 C 964.524 2699.67 1048.775 2717.403 1231.127 2679.215 C 1247.586 2675.768 1263.878 2674.325 1280 2674.931 L 1280 2541.924 Z " fill="url(#_lgradient_20)"/></g><g opacity="0.2"><linearGradient id="_lgradient_21" x1="104.09495171608607%" y1="-114.87326073732945%" x2="37.424237833794436%" y2="112.49195772565119%"><stop offset="0%" stop-opacity="1" style="stop-color:rgb(255,255,255)"/><stop offset="100%" stop-opacity="1" style="stop-color:rgb(23,23,29)"/></linearGradient><path d=" M 1280 2444.27 C 1264.402 2436.058 1248.074 2427.565 1231.21 2418.666 C 1216.77 2411.047 1202.929 2404.905 1189.376 2400 L 579.278 2400 C 622.635 2477.042 701.398 2559.164 780.342 2596.452 C 884.233 2645.522 972.409 2647.373 1157.769 2566.305 C 1198.68 2548.413 1239.424 2544.046 1280 2553.235 L 1280 2444.27 Z " fill="url(#_lgradient_21)"/></g></g></svg>