<?xml version="1.0" standalone="no"?><!-- Generator: Gravit.io --><svg xmlns="http://www.w3.org/2000/svg" xmlns:xlink="http://www.w3.org/1999/xlink" style="isolation:isolate" viewBox="528.923 3202 750.077 424.32" width="750.077" height="424.32"><g id="Gelombang 5"><g opacity="0.2"><linearGradient id="_lgradient_2" x1="104.09495171608607%" y1="-114.87326073732945%" x2="37.424237833794436%" y2="112.49195772565119%"><stop offset="0%" stop-opacity="1" style="stop-color:rgb(255,255,255)"/><stop offset="100%" stop-opacity="1" style="stop-color:rgb(23,23,29)"/></linearGradient><path d=" M 1279 3589.776 C 1275.715 3590.496 1272.429 3591.376 1269.143 3592.338 C 1090.352 3644.726 1004.969 3633.663 903.981 3578.878 C 802.994 3524.093 701.671 3400.208 678.65 3317.077 C 670.313 3286.975 659.048 3245.047 644.507 3202 L 746.844 3202 L 746.844 3202 C 801.702 3295.695 870.335 3393.254 999.688 3405.533 C 1130.349 3417.937 1202.318 3411.475 1279 3439.764 L 1279 3589.776 Z " fill="url(#_lgradient_2)"/></g><g opacity="0.2"><linearGradient id="_lgradient_3" x1="104.09495171608607%" y1="-114.87326073732945%" x2="37.424237833794436%" y2="112.49195772565119%"><stop offset="0%" stop-opacity="1" style="stop-color:rgb(255,255,255)"/><stop offset="100%" stop-opacity="1" style="stop-color:rgb(23,23,29)"/></linearGradient><path d=" M 1279 3461.013 C 1247.855 3461.248 1217.239 3469.451 1187.146 3485.537 C 1008.723 3580.908 920.674 3585.986 813.251 3545.224 C 705.828 3504.461 592.622 3386.268 562.572 3297.748 C 553.811 3271.941 542.509 3237.927 528.923 3202 L 656.806 3202 L 656.806 3202 C 714.462 3277.778 786.823 3341.773 897.321 3331.209 C 1065.646 3315.116 1137.622 3284.685 1248.769 3332.587 C 1259.087 3337.034 1269.208 3341.356 1279 3345.548 L 1279 3461.013 Z " fill="url(#_lgradient_3)"/></g></g></svg>