<?xml version="1.0" standalone="no"?><!-- Generator: Gravit.io --><svg xmlns="http://www.w3.org/2000/svg" xmlns:xlink="http://www.w3.org/1999/xlink" style="isolation:isolate" viewBox="0 4000 667.719 339.283" width="667.719" height="339.283"><g id="Gelombang 6"><g opacity="0.2"><linearGradient id="_lgradient_4" x1="104.09495171608607%" y1="-114.87326073732945%" x2="37.424237833794436%" y2="112.49195772565119%"><stop offset="0%" stop-opacity="1" style="stop-color:rgb(255,255,255)"/><stop offset="100%" stop-opacity="1" style="stop-color:rgb(23,23,29)"/></linearGradient><path d=" M 0 4316.998 C 150.538 4355.563 230.047 4342.099 322.686 4291.842 C 423.674 4237.058 524.996 4113.172 548.018 4030.042 C 550.503 4021.068 553.248 4011.044 556.357 4000 L 556.357 4000 L 423.887 4000 C 376.954 4060.644 316.512 4109.999 226.98 4118.498 C 126.032 4128.081 60.118 4126.403 0 4138.203 L 0 4316.998 Z " fill="url(#_lgradient_4)"/></g><g opacity="0.2"><linearGradient id="_lgradient_5" x1="104.09495171608607%" y1="-114.87326073732945%" x2="37.424237833794436%" y2="112.49195772565119%"><stop offset="0%" stop-opacity="1" style="stop-color:rgb(255,255,255)"/><stop offset="100%" stop-opacity="1" style="stop-color:rgb(23,23,29)"/></linearGradient><path d=" M 0 4182.005 Q 19.909 4188.018 39.522 4198.501 C 217.945 4293.873 305.994 4298.951 413.416 4258.188 C 520.839 4217.426 634.045 4099.232 664.096 4010.712 C 665.255 4007.297 666.459 4003.738 667.719 4000 L 667.719 4000 L 487.025 4000 C 444.179 4031.536 393.113 4050.27 329.347 4044.173 C 172.436 4029.172 99.251 4001.711 0 4036.888 L 0 4182.005 Z " fill="url(#_lgradient_5)"/></g></g></svg>