<svg width="1440" height="1192" viewBox="0 0 1440 1192" fill="none" xmlns="http://www.w3.org/2000/svg">
<path d="M1355.5 4.64629C1439.33 -21.8142 1510.83 73.3254 1569.5 74.498V985.116C1562.83 992.822 1409.99 1137.71 1280.5 1177.08C954.851 1276.1 750.14 842.629 421 755.929C224.5 704.168 99.2048 802.664 -2.96191 1035C-2.96191 827.79 0 501.564 0 469C0 428.295 78.9583 370.756 154 350.387C291 313.2 413.486 355.026 522.5 430.289C687 543.861 679.498 594.39 785.5 645.372C903.5 702.125 1041.7 689.027 1173.5 598.67C1283.5 523.257 1297.65 441.42 1220 303.528C1153.5 185.434 1240.7 40.882 1355.5 4.64629Z" fill="url(#paint0_linear)"/>
<defs>
<linearGradient id="paint0_linear" x1="1113.5" y1="315.745" x2="-306.353" y2="1098.99" gradientUnits="userSpaceOnUse">
<stop stop-color="#005BEA"/>
<stop offset="1" stop-color="#00C6FB"/>
</linearGradient>
</defs>
</svg>
