<svg width="1439" height="1191" viewBox="0 0 1439 1191" fill="none" xmlns="http://www.w3.org/2000/svg">
<path d="M1285.5 8.96467C1369.33 -17.3626 1425.83 29.8333 1484.5 31L1499.5 984.498C1492.83 992.165 1339.99 1136.33 1210.5 1175.5C884.851 1274.01 680.141 842.728 351 756.465C154.5 704.965 102.632 735.833 0.464844 967V405.5C0.464844 405.5 8.95856 373.232 84 352.965C221 315.965 343.487 357.58 452.5 432.465C617 545.465 609.498 595.739 715.5 646.465C833.5 702.932 1034.2 678.744 1166 588.842C1276 513.809 1227.65 443.54 1150 306.342C1083.5 188.842 1170.7 45.0179 1285.5 8.96467Z" fill="url(#paint0_linear)"/>
<defs>
<linearGradient id="paint0_linear" x1="1043.5" y1="318.497" x2="175.5" y2="1161" gradientUnits="userSpaceOnUse">
<stop stop-color="#005BEA" stop-opacity="0.33"/>
<stop offset="1" stop-color="#00C6FB"/>
</linearGradient>
</defs>
</svg>
